<mxfile host="app.diagrams.net" modified="2024-06-07T15:06:02.228Z" agent="Mozilla/5.0 (Windows NT 10.0; Win64; x64) AppleWebKit/537.36 (KHTML, like Gecko) Chrome/126.0.0.0 Safari/537.36" version="24.5.2" etag="ZuyTQq7CtkNRZpTDexxS" type="github">
  <diagram name="Page-1" id="EITlNzLqMYplicmvbA2Q">
    <mxGraphModel>
      <root>
        <mxCell id="0" />
        <mxCell id="1" parent="0" />
      </root>
    </mxGraphModel>
  </diagram>
</mxfile>
